<svg width="28" height="40" viewBox="0 0 28 40" fill="none" xmlns="http://www.w3.org/2000/svg">
<path fill-rule="evenodd" clip-rule="evenodd" d="M18.1309 3.23942C18.6829 2.38068 19.3188 1.97159 19.9529 1.82148C20.6041 1.66733 21.3427 1.76592 22.1121 2.08812C23.6725 2.74165 25.1467 4.22878 25.8222 5.65491C25.9995 6.02925 26.4467 6.18897 26.8211 6.01165C27.1954 5.83433 27.3551 5.38712 27.1778 5.01278C26.3533 3.27225 24.6132 1.50937 22.6915 0.70456C21.7198 0.297591 20.6504 0.114932 19.6074 0.361822C18.5473 0.612756 17.6028 1.28701 16.8691 2.42828C16.464 3.05846 16.1632 3.67765 15.9553 4.28152C14.6582 3.88703 13.3265 3.69304 12.0916 3.83903C10.2685 4.05457 8.67741 5.01597 7.81065 7.03841C6.88286 9.20326 6.74221 11.2809 7.65692 13.665C8.17362 15.0117 9.02313 16.4455 10.2313 18.0473C9.2114 18.987 8.36486 20.1267 7.6721 21.3523C5.97726 24.3505 5.13981 27.9485 4.84437 30.692C4.12584 30.5035 3.4633 30.4338 3.00001 30.4338C2.90327 30.4338 2.80717 30.4494 2.7154 30.48C2.34291 30.6042 2.06953 30.8562 1.87673 31.0945C1.68 31.3376 1.51948 31.6253 1.38589 31.9181C1.11872 32.5037 0.905738 33.2301 0.73547 33.9693C0.393089 35.4559 0.188167 37.1532 0.10266 38.2648C0.0834326 38.5148 0.169328 38.7614 0.339659 38.9453C0.50999 39.1293 0.749319 39.2338 1.00001 39.2338C1.33284 39.2338 1.65501 39.1253 1.91388 39.0129C2.18886 38.8935 2.47855 38.731 2.76849 38.5476C3.34917 38.1805 4.00055 37.6853 4.64666 37.154C5.94228 36.0885 7.28933 34.8173 8.1364 33.9702C8.45311 33.6535 8.48874 33.1521 8.22001 32.7938C7.68784 32.0843 6.9965 31.5838 6.2978 31.2336C6.53836 28.5927 7.33154 25.0029 8.97792 22.0904C9.59144 21.005 10.3135 20.0274 11.1613 19.228C11.8358 20.0517 12.5974 20.9201 13.4489 21.8426C15.0878 23.618 16.9567 24.2843 18.6688 24.1841C20.3543 24.0855 21.8357 23.2452 22.7181 22.1055C23.6024 20.9631 23.9438 19.4106 23.0689 18.0462C22.2262 16.732 20.4044 15.8448 17.5679 15.5869C15.0978 15.3624 13.0633 15.9858 11.4054 17.1127C10.2712 15.6054 9.50951 14.3061 9.05738 13.1277C8.29352 11.1368 8.40287 9.46444 9.18937 7.62928C9.82261 6.15172 10.919 5.48812 12.2678 5.32866C13.2776 5.20927 14.4356 5.37606 15.6236 5.74897C15.5508 6.42987 15.5951 7.08428 15.7378 7.70501C16.0965 9.2651 17.0561 10.5254 18.1521 11.4159C19.2412 12.3008 20.5276 12.8718 21.6318 13.0007C22.181 13.0647 22.753 13.0269 23.2393 12.7929C23.7618 12.5414 24.1354 12.0834 24.2398 11.4571C24.3462 10.8187 24.0977 10.1735 23.7626 9.62338C23.4151 9.05296 22.9042 8.46877 22.2984 7.90832C21.0848 6.78557 19.4037 5.67807 17.6125 4.89644C17.5307 4.86076 17.4485 4.82569 17.366 4.79126C17.5331 4.29933 17.7824 3.78156 18.1309 3.23942ZM14.5511 20.8251C13.7163 19.9207 12.9803 19.0805 12.336 18.2946C13.7343 17.3746 15.4152 16.8974 17.4321 17.0808C20.0956 17.3229 21.3363 18.1232 21.8062 18.8559C22.2437 19.5383 22.1476 20.392 21.532 21.1872C20.9143 21.985 19.8332 22.6134 18.5812 22.6867C17.3558 22.7584 15.9123 22.2997 14.5511 20.8251ZM17.1997 7.36895C17.1231 7.03558 17.0829 6.68074 17.0902 6.30537C18.7071 7.02163 20.2135 8.02289 21.2797 9.00938C21.8224 9.51142 22.2294 9.98974 22.4816 10.4037C22.7461 10.838 22.7788 11.099 22.7602 11.2105C22.7396 11.3343 22.6914 11.3919 22.5888 11.4412C22.4502 11.508 22.194 11.5561 21.8057 11.5108C21.0349 11.4209 20.0088 10.9919 19.098 10.2518C18.194 9.51728 17.4661 8.5276 17.1997 7.36895ZM3.02351 32.6652C3.11441 32.466 3.19656 32.3295 3.26267 32.2436C3.67933 32.2724 4.26906 32.3685 4.87547 32.5825C5.36898 32.7567 5.83971 32.9968 6.23424 33.3144C5.45336 34.0663 4.45891 34.9779 3.50335 35.7637C2.98563 36.1895 2.49187 36.5679 2.05781 36.8616C2.1613 36.057 2.30475 35.1757 2.48955 34.3733C2.64845 33.6834 2.82921 33.0911 3.02351 32.6652Z" fill="#6A35FF"/>
</svg>
