<svg width="37" height="33" viewBox="0 0 37 33" fill="none" xmlns="http://www.w3.org/2000/svg">
<path fill-rule="evenodd" clip-rule="evenodd" d="M11.5187 6.34172C10.1292 8.23466 9.57455 10.5342 9.49876 12.05C9.47215 12.5822 9.03288 13 8.50001 13C6.5957 13 5.33224 13.8267 4.47686 14.9265C3.85907 15.7208 3.45214 16.6654 3.21191 17.5476C5.98611 17.7742 7.86825 18.8024 8.9105 20.47C9.75142 21.8155 9.9436 23.4234 9.77909 25.0162C11.4874 24.7613 13.2345 25.3639 14.6847 26.1949C16.178 27.0506 17.5301 28.2399 18.5 29.3623C19.4699 28.2399 20.822 27.0506 22.3153 26.1949C23.7655 25.3639 25.5126 24.7613 27.2209 25.0162C27.0564 23.4234 27.2486 21.8155 28.0895 20.47C29.1318 18.8024 31.0139 17.7742 33.7881 17.5476C33.5479 16.6654 33.1409 15.7208 32.5232 14.9265C31.6678 13.8267 30.4043 13 28.5 13C27.9671 13 27.5279 12.5822 27.5013 12.05C27.4255 10.5342 26.8708 8.23466 25.4814 6.34172C24.1248 4.49359 21.9559 3 18.5 3C15.0441 3 12.8752 4.49359 11.5187 6.34172ZM19.3436 31.5374C19.305 31.5981 19.2595 31.6551 19.2072 31.7072C19.1227 31.792 19.0252 31.8591 18.92 31.9077C18.7856 31.9701 18.6422 32.0002 18.5 32.0001C18.2396 31.9999 17.9832 31.8981 17.7928 31.7072C17.7406 31.6551 17.695 31.5981 17.6564 31.5374C16.9041 30.4166 15.3999 28.9098 13.6903 27.9301C11.9427 26.9287 10.2797 26.6348 8.99615 27.3682C8.64833 27.567 8.21548 27.539 7.89616 27.2971C7.57685 27.0552 7.43271 26.6461 7.52986 26.2575C8.00259 24.3666 7.94133 22.6929 7.21451 21.53C6.527 20.43 5.05478 19.5 2.00001 19.5C1.71175 19.5 1.43751 19.3756 1.24762 19.1587C1.05774 18.9419 0.97068 18.6536 1.00878 18.3678C1.19168 16.9961 1.73942 15.1884 2.89815 13.6986C3.93975 12.3594 5.4698 11.2915 7.58459 11.0509C7.81554 9.30968 8.49484 7.08135 9.90636 5.1583C11.6082 2.83975 14.3559 1 18.5 1C22.6441 1 25.3918 2.83975 27.0937 5.1583C28.5052 7.08135 29.1845 9.30968 29.4154 11.0509C31.5302 11.2915 33.0603 12.3594 34.1019 13.6986C35.2606 15.1884 35.8083 16.9961 35.9912 18.3678C36.0293 18.6536 35.9423 18.9419 35.7524 19.1587C35.5625 19.3756 35.2883 19.5 35 19.5C31.9452 19.5 30.473 20.43 29.7855 21.53C29.0587 22.6929 28.9974 24.3666 29.4702 26.2575C29.5673 26.6461 29.4232 27.0552 29.1039 27.2971C28.7845 27.539 28.3517 27.567 28.0039 27.3682C26.7203 26.6348 25.0573 26.9287 23.3097 27.9301C21.6001 28.9098 20.0959 30.4166 19.3436 31.5374ZM14.5 14C15.6046 14 16.5 13.1046 16.5 12C16.5 10.8954 15.6046 10 14.5 10C13.3954 10 12.5 10.8954 12.5 12C12.5 13.1046 13.3954 14 14.5 14ZM24.5 12C24.5 13.1046 23.6046 14 22.5 14C21.3954 14 20.5 13.1046 20.5 12C20.5 10.8954 21.3954 10 22.5 10C23.6046 10 24.5 10.8954 24.5 12ZM18.5 23C19.6046 23 20.5 21.433 20.5 19.5C20.5 17.567 19.6046 16 18.5 16C17.3954 16 16.5 17.567 16.5 19.5C16.5 21.433 17.3954 23 18.5 23Z" fill="#6A35FF"/>
<path d="M9.49876 12.05L9.99813 12.0749L9.99813 12.0749L9.49876 12.05ZM11.5187 6.34172L11.1156 6.04587L11.1156 6.04587L11.5187 6.34172ZM4.47686 14.9265L4.87153 15.2334L4.87153 15.2334L4.47686 14.9265ZM3.21191 17.5476L2.72947 17.4162L2.57134 17.9969L3.17121 18.0459L3.21191 17.5476ZM8.9105 20.47L9.3345 20.205L9.3345 20.205L8.9105 20.47ZM9.77909 25.0162L9.28174 24.9648L9.21553 25.6058L9.85288 25.5107L9.77909 25.0162ZM14.6847 26.1949L14.4361 26.6287L14.4361 26.6287L14.6847 26.1949ZM18.5 29.3623L18.1217 29.6893L18.5 30.1271L18.8783 29.6893L18.5 29.3623ZM22.3153 26.1949L22.0667 25.761L22.0667 25.761L22.3153 26.1949ZM27.2209 25.0162L27.1471 25.5107L27.7845 25.6058L27.7183 24.9648L27.2209 25.0162ZM28.0895 20.47L28.5135 20.735L28.5135 20.735L28.0895 20.47ZM33.7881 17.5476L33.8288 18.0459L34.4287 17.9969L34.2705 17.4162L33.7881 17.5476ZM32.5232 14.9265L32.1285 15.2334L32.1285 15.2334L32.5232 14.9265ZM27.5013 12.05L27.0019 12.0749L27.0019 12.0749L27.5013 12.05ZM25.4814 6.34172L25.0783 6.63758L25.0783 6.63758L25.4814 6.34172ZM19.2072 31.7072L18.8541 31.3533L18.8533 31.3541L19.2072 31.7072ZM19.3436 31.5374L18.9283 31.2587L18.9218 31.269L19.3436 31.5374ZM18.92 31.9077L18.7105 31.4537L18.7095 31.4542L18.92 31.9077ZM18.5 32.0001L18.4995 32.5001L18.4996 32.5001L18.5 32.0001ZM17.7928 31.7072L18.1467 31.3541L18.1459 31.3533L17.7928 31.7072ZM17.6564 31.5374L18.0784 31.2689L18.0715 31.2588L17.6564 31.5374ZM13.6903 27.9301L13.4417 28.364L13.4417 28.364L13.6903 27.9301ZM8.99615 27.3682L8.74808 26.9341L8.74807 26.9341L8.99615 27.3682ZM7.89616 27.2971L8.19809 26.8986L8.19808 26.8986L7.89616 27.2971ZM7.21451 21.53L6.79051 21.795L6.79051 21.795L7.21451 21.53ZM1.24762 19.1587L0.87143 19.4881L0.87143 19.4881L1.24762 19.1587ZM1.00878 18.3678L0.513164 18.3018L1.00878 18.3678ZM2.89815 13.6986L3.29283 14.0056L3.29283 14.0056L2.89815 13.6986ZM7.58459 11.0509L7.64111 11.5477L8.02893 11.5036L8.08025 11.1166L7.58459 11.0509ZM9.90636 5.1583L10.3094 5.45416L10.3094 5.45416L9.90636 5.1583ZM27.0937 5.1583L26.6906 5.45416L26.6906 5.45416L27.0937 5.1583ZM29.4154 11.0509L28.9198 11.1166L28.9711 11.5036L29.3589 11.5477L29.4154 11.0509ZM34.1019 13.6986L34.4965 13.3916L34.4965 13.3916L34.1019 13.6986ZM35.9912 18.3678L35.4956 18.4339L35.4956 18.4339L35.9912 18.3678ZM29.7855 21.53L30.2095 21.795L30.2095 21.795L29.7855 21.53ZM29.4702 26.2575L29.9552 26.1362L29.9552 26.1362L29.4702 26.2575ZM29.1039 27.2971L28.8019 26.8986L28.8019 26.8986L29.1039 27.2971ZM28.0039 27.3682L28.2519 26.9341L28.2519 26.9341L28.0039 27.3682ZM23.3097 27.9301L23.0611 27.4963L23.0611 27.4963L23.3097 27.9301ZM9.99813 12.0749C10.0701 10.6347 10.6022 8.43536 11.9217 6.63758L11.1156 6.04587C9.65632 8.03397 9.07895 10.4337 8.99938 12.025L9.99813 12.0749ZM8.50001 13.5C9.29932 13.5 9.95822 12.8732 9.99813 12.0749L8.99938 12.025C8.98608 12.2911 8.76644 12.5 8.50001 12.5V13.5ZM4.87153 15.2334C5.64399 14.2403 6.76824 13.5 8.50001 13.5V12.5C6.42315 12.5 5.02049 13.4131 4.08218 14.6195L4.87153 15.2334ZM3.69434 17.679C3.92195 16.8431 4.30411 15.963 4.87153 15.2334L4.08218 14.6195C3.41404 15.4785 2.98232 16.4877 2.72947 17.4162L3.69434 17.679ZM9.3345 20.205C8.18401 18.3642 6.13165 17.2844 3.25261 17.0493L3.17121 18.0459C5.84057 18.264 7.55249 19.2406 8.48651 20.735L9.3345 20.205ZM10.2764 25.0675C10.4479 23.4075 10.254 21.6761 9.3345 20.205L8.48651 20.735C9.24889 21.9548 9.43929 23.4393 9.28174 24.9648L10.2764 25.0675ZM14.9333 25.761C13.4368 24.9035 11.5717 24.2431 9.7053 24.5216L9.85288 25.5107C11.403 25.2794 13.0323 25.8243 14.4361 26.6287L14.9333 25.761ZM18.8783 29.0354C17.8766 27.8762 16.482 26.6485 14.9333 25.761L14.4361 26.6287C15.8741 27.4527 17.1835 28.6036 18.1217 29.6893L18.8783 29.0354ZM22.0667 25.761C20.5181 26.6485 19.1234 27.8762 18.1217 29.0354L18.8783 29.6893C19.8165 28.6036 21.1259 27.4527 22.5639 26.6287L22.0667 25.761ZM27.2947 24.5216C25.4283 24.2431 23.5632 24.9035 22.0667 25.761L22.5639 26.6287C23.9677 25.8243 25.597 25.2794 27.1471 25.5107L27.2947 24.5216ZM27.6655 20.205C26.7461 21.6761 26.5521 23.4075 26.7236 25.0675L27.7183 24.9648C27.5607 23.4393 27.7511 21.9548 28.5135 20.735L27.6655 20.205ZM33.7474 17.0493C30.8684 17.2844 28.816 18.3642 27.6655 20.205L28.5135 20.735C29.4475 19.2406 31.1594 18.264 33.8288 18.0459L33.7474 17.0493ZM32.1285 15.2334C32.6959 15.963 33.0781 16.8431 33.3057 17.679L34.2705 17.4162C34.0177 16.4877 33.586 15.4785 32.9178 14.6195L32.1285 15.2334ZM28.5 13.5C30.2318 13.5 31.356 14.2403 32.1285 15.2334L32.9178 14.6195C31.9795 13.4131 30.5769 12.5 28.5 12.5V13.5ZM27.0019 12.0749C27.0418 12.8732 27.7007 13.5 28.5 13.5V12.5C28.2336 12.5 28.0139 12.2911 28.0006 12.025L27.0019 12.0749ZM25.0783 6.63758C26.3979 8.43536 26.9299 10.6347 27.0019 12.0749L28.0006 12.025C27.9211 10.4337 27.3437 8.03397 25.8844 6.04587L25.0783 6.63758ZM18.5 3.5C21.784 3.5 23.8082 4.90717 25.0783 6.63758L25.8844 6.04587C24.4415 4.08001 22.1278 2.5 18.5 2.5V3.5ZM11.9217 6.63758C13.1919 4.90717 15.216 3.5 18.5 3.5V2.5C14.8722 2.5 12.5585 4.08001 11.1156 6.04587L11.9217 6.63758ZM19.5604 32.0612C19.6389 31.9828 19.7074 31.8971 19.7655 31.8058L18.9218 31.269C18.9026 31.2991 18.88 31.3274 18.8541 31.3533L19.5604 32.0612ZM19.1296 32.3616C19.2873 32.2888 19.434 32.1879 19.5612 32.0604L18.8533 31.3541C18.8114 31.3961 18.763 31.4295 18.7105 31.4537L19.1296 32.3616ZM18.4996 32.5001C18.7128 32.5003 18.9284 32.455 19.1306 32.3612L18.7095 31.4542C18.6428 31.4851 18.5716 31.5002 18.5005 31.5001L18.4996 32.5001ZM17.4388 32.0604C17.7255 32.3477 18.1102 32.4998 18.4995 32.5001L18.5005 31.5001C18.3691 31.5 18.2409 31.4485 18.1467 31.3541L17.4388 32.0604ZM17.2345 31.8058C17.2926 31.8971 17.3611 31.9828 17.4396 32.0612L18.1459 31.3533C18.12 31.3274 18.0974 31.2992 18.0782 31.269L17.2345 31.8058ZM13.4417 28.364C15.0835 29.3048 16.5311 30.7581 17.2412 31.8161L18.0715 31.2588C17.2771 30.0751 15.7162 28.5148 13.9389 27.4963L13.4417 28.364ZM9.24421 27.8024C10.2957 27.2015 11.7491 27.394 13.4417 28.364L13.9389 27.4963C12.1363 26.4634 10.2638 26.068 8.74808 26.9341L9.24421 27.8024ZM7.59424 27.6957C8.07321 28.0585 8.7225 28.1005 9.24422 27.8024L8.74807 26.9341C8.57417 27.0335 8.35774 27.0195 8.19809 26.8986L7.59424 27.6957ZM7.04479 26.1362C6.89906 26.7191 7.11527 27.3328 7.59424 27.6957L8.19808 26.8986C8.03843 26.7776 7.96636 26.573 8.01494 26.3787L7.04479 26.1362ZM6.79051 21.795C7.41214 22.7896 7.50377 24.3003 7.04479 26.1362L8.01494 26.3787C8.50141 24.4328 8.47052 22.5962 7.63851 21.265L6.79051 21.795ZM2.00001 20C4.95589 20 6.22752 20.8942 6.79051 21.795L7.63851 21.265C6.82649 19.9658 5.15366 19 2.00001 19V20ZM0.87143 19.4881C1.15626 19.8134 1.56761 20 2.00001 20V19C1.85588 19 1.71876 18.9378 1.62381 18.8294L0.87143 19.4881ZM0.513164 18.3018C0.456018 18.7304 0.586604 19.1628 0.87143 19.4881L1.62381 18.8294C1.52887 18.7209 1.48534 18.5768 1.50439 18.4339L0.513164 18.3018ZM2.50348 13.3916C1.27577 14.9701 0.704178 16.8692 0.513164 18.3018L1.50439 18.4339C1.67918 17.123 2.20307 15.4067 3.29283 14.0056L2.50348 13.3916ZM7.52807 10.5541C5.2607 10.8121 3.61519 11.9623 2.50348 13.3916L3.29283 14.0056C4.2643 12.7565 5.67891 11.7709 7.64111 11.5477L7.52807 10.5541ZM9.50328 4.86244C8.03109 6.86816 7.32819 9.18122 7.08893 10.9852L8.08025 11.1166C8.30288 9.43813 8.95859 7.29455 10.3094 5.45416L9.50328 4.86244ZM18.5 0.5C14.1837 0.5 11.2913 2.42639 9.50328 4.86244L10.3094 5.45416C11.925 3.25312 14.5281 1.5 18.5 1.5V0.5ZM27.4967 4.86244C25.7087 2.42639 22.8163 0.5 18.5 0.5V1.5C22.472 1.5 25.075 3.25312 26.6906 5.45416L27.4967 4.86244ZM29.9111 10.9852C29.6718 9.18122 28.9689 6.86816 27.4967 4.86244L26.6906 5.45416C28.0414 7.29455 28.6971 9.43813 28.9198 11.1166L29.9111 10.9852ZM34.4965 13.3916C33.3848 11.9623 31.7393 10.8121 29.4719 10.5541L29.3589 11.5477C31.3211 11.7709 32.7357 12.7565 33.7072 14.0056L34.4965 13.3916ZM36.4868 18.3018C36.2958 16.8692 35.7242 14.9701 34.4965 13.3916L33.7072 14.0056C34.7969 15.4067 35.3208 17.123 35.4956 18.4339L36.4868 18.3018ZM36.1286 19.4881C36.4134 19.1628 36.544 18.7304 36.4868 18.3018L35.4956 18.4339C35.5147 18.5768 35.4711 18.7209 35.3762 18.8294L36.1286 19.4881ZM35 20C35.4324 20 35.8438 19.8134 36.1286 19.4881L35.3762 18.8294C35.2813 18.9378 35.1441 19 35 19V20ZM30.2095 21.795C30.7725 20.8942 32.0441 20 35 20V19C31.8464 19 30.1735 19.9658 29.3615 21.265L30.2095 21.795ZM29.9552 26.1362C29.4962 24.3003 29.5879 22.7896 30.2095 21.795L29.3615 21.265C28.5295 22.5962 28.4986 24.4328 28.9851 26.3787L29.9552 26.1362ZM29.4058 27.6957C29.8847 27.3328 30.101 26.7191 29.9552 26.1362L28.9851 26.3787C29.0337 26.573 28.9616 26.7776 28.8019 26.8986L29.4058 27.6957ZM27.7558 27.8024C28.2775 28.1005 28.9268 28.0585 29.4058 27.6957L28.8019 26.8986C28.6423 27.0195 28.4258 27.0335 28.2519 26.9341L27.7558 27.8024ZM23.5583 28.364C25.2509 27.394 26.7044 27.2015 27.7558 27.8024L28.2519 26.9341C26.7362 26.068 24.8637 26.4634 23.0611 27.4963L23.5583 28.364ZM19.7588 31.8161C20.4689 30.7581 21.9165 29.3048 23.5583 28.364L23.0611 27.4963C21.2838 28.5148 19.723 30.0751 18.9285 31.2588L19.7588 31.8161ZM16 12C16 12.8284 15.3284 13.5 14.5 13.5V14.5C15.8807 14.5 17 13.3807 17 12H16ZM14.5 10.5C15.3284 10.5 16 11.1716 16 12H17C17 10.6193 15.8807 9.5 14.5 9.5V10.5ZM13 12C13 11.1716 13.6716 10.5 14.5 10.5V9.5C13.1193 9.5 12 10.6193 12 12H13ZM14.5 13.5C13.6716 13.5 13 12.8284 13 12H12C12 13.3807 13.1193 14.5 14.5 14.5V13.5ZM22.5 14.5C23.8807 14.5 25 13.3807 25 12H24C24 12.8284 23.3284 13.5 22.5 13.5V14.5ZM20 12C20 13.3807 21.1193 14.5 22.5 14.5V13.5C21.6716 13.5 21 12.8284 21 12H20ZM22.5 9.5C21.1193 9.5 20 10.6193 20 12H21C21 11.1716 21.6716 10.5 22.5 10.5V9.5ZM25 12C25 10.6193 23.8807 9.5 22.5 9.5V10.5C23.3284 10.5 24 11.1716 24 12H25ZM20 19.5C20 20.3956 19.7915 21.1818 19.4801 21.7268C19.1606 22.2859 18.7954 22.5 18.5 22.5V23.5C19.3092 23.5 19.944 22.9306 20.3483 22.2229C20.7608 21.5012 21 20.5374 21 19.5H20ZM18.5 16.5C18.7954 16.5 19.1606 16.7141 19.4801 17.2732C19.7915 17.8182 20 18.6044 20 19.5H21C21 18.4626 20.7608 17.4988 20.3483 16.7771C19.944 16.0694 19.3092 15.5 18.5 15.5V16.5ZM17 19.5C17 18.6044 17.2085 17.8182 17.5199 17.2732C17.8394 16.7141 18.2046 16.5 18.5 16.5V15.5C17.6909 15.5 17.056 16.0694 16.6517 16.7771C16.2392 17.4988 16 18.4626 16 19.5H17ZM18.5 22.5C18.2046 22.5 17.8394 22.2859 17.5199 21.7268C17.2085 21.1818 17 20.3956 17 19.5H16C16 20.5374 16.2392 21.5012 16.6517 22.2229C17.056 22.9306 17.6909 23.5 18.5 23.5V22.5Z" fill="#6A35FF"/>
</svg>
